Coordinates
version=1
nRows=26
nColumns=22
inDegrees=yes

Units are S.I. units (second, meters, Newtons, ...)
If the header above contains a line with 'inDegrees', this indicates whether rotational values are in degrees (yes) or radians (no).

endheader
time	pelvis_tilt	pelvis_list	pelvis_rotation	pelvis_tx	pelvis_ty	pelvis_tz	hip_flexion_r	hip_adduction_r	hip_rotation_r	knee_angle_r	ankle_angle_r	subtalar_angle_r	hip_flexion_l	hip_adduction_l	hip_rotation_l	knee_angle_l	ankle_angle_l	subtalar_angle_l	lumbar_extension	lumbar_bending	lumbar_rotation
      2.17000000	      4.99085436	     -3.76665199	    -49.66311644	     -0.09992403	      0.93706541	     -0.05592898	     15.54789356	      2.11518769	     -2.54340021	    -62.87837992	     -1.71363621	      7.41533873	      3.09662527	     -1.21832740	     -7.26117457	    -25.20209747	     22.99457766	    -16.07472222	    -16.12561940	      0.85754755	    -14.92686709
      2.18000000	      4.90048860	     -4.04795218	    -49.99280701	     -0.09329086	      0.93855732	     -0.04942121	     16.70307298	      1.99622179	     -3.58314787	    -61.78033867	     -0.64625786	      6.52862783	      1.71289291	     -1.40673370	     -7.87995530	    -24.20438345	     23.15816622	    -15.83624482	    -16.25498067	      1.18506344	    -15.25018410
      2.19000000	      4.83997884	     -4.28496599	    -50.32217857	     -0.08665363	      0.93977491	     -0.04285416	     17.75368574	      1.82124882	     -4.60945197	    -60.41678189	      0.30206249	      5.72276415	      0.33650109	     -1.53129796	     -8.53794697	    -23.19771824	     23.28260602	    -15.53766381	    -16.35378760	      1.45133480	    -15.54990755
      2.20000000	      4.78252781	     -4.45839389	    -50.64394867	     -0.08004151	      0.94063006	     -0.03622211	     18.73806870	      1.61451068	     -5.61202159	    -58.80125337	      1.12491144	      4.92005879	     -0.98575709	     -1.60092658	     -9.19383580	    -22.19761994	     23.41353829	    -15.15921877	    -16.38835460	      1.65919136	    -15.82081702
      2.21000000	      4.75874243	     -4.59073314	    -50.94418276	     -0.07341501	      0.94114548	     -0.02955167	     19.61718902	      1.35517496	     -6.61852560	    -56.95227595	      1.83992816	      4.24616991	     -2.27121205	     -1.60718708	     -9.85001409	    -21.24771515	     23.54436073	    -14.75077504	    -16.40479106	      1.81119649	    -16.10343103
      2.22000000	      4.73094551	     -4.65894814	    -51.21963109	     -0.06682641	      0.94124863	     -0.02283266	     20.44073375	      1.08087433	     -7.60711931	    -54.87517336	      2.41894832	      3.59599385	     -3.47353166	     -1.56854801	    -10.46027920	    -20.33964230	     23.71566203	    -14.26435219	    -16.36026100	      1.91283078	    -16.36463641
      2.23000000	      4.73562764	     -4.69531898	    -51.44697165	     -0.06024695	      0.94100776	     -0.01609655	     21.15132359	      0.77451060	     -8.59863072	    -52.57881240	      2.88327060	      3.14609608	     -4.62131643	     -1.48585787	    -11.04700380	    -19.51564968	     23.91254490	    -13.80966075	    -16.31612344	      1.96698265	    -16.69833327
      2.24000000	      4.74689250	     -4.68934998	    -51.64877217	     -0.05370618	      0.94038885	     -0.00929887	     21.78097324	      0.46934564	     -9.57162256	    -50.07305780	      3.20672369	      2.75626789	     -5.69906083	     -1.36803802	    -11.57172469	    -18.76147426	     24.16120991	    -13.31209181	    -16.24036384	      1.97847671	    -17.02064991
      2.25000000	      4.77592879	     -4.65449324	    -51.80863197	     -0.04720870	      0.93942632	     -0.00247055	     22.31410806	      0.16079963	    -10.54397815	    -47.37629919	      3.39845947	      2.48525337	     -6.71201830	     -1.22293391	    -12.03878108	    -18.09634137	     24.46534384	    -12.83466547	    -16.16254989	      1.94955936	    -17.35616140
      2.26000000	      4.82438767	     -4.59470057	    -51.92903801	     -0.04075229	      0.93814873	      0.00440069	     22.74776302	     -0.13800413	    -11.49394478	    -44.49783869	      3.45009558	      2.33334844	     -7.66235518	     -1.05508431	    -12.45178347	    -17.52906255	     24.82257398	    -12.40197633	    -16.08440890	      1.88384759	    -17.73272687
      2.27000000	      4.87721798	     -4.50439350	    -51.99513513	     -0.03433441	      0.93655331	      0.01128547	     23.10154760	     -0.41883345	    -12.42541084	    -41.45846583	      3.35887775	      2.30843291	     -8.52442204	     -0.87693400	    -12.76349681	    -17.07602753	     25.28098919	    -12.06895503	    -15.99284844	      1.79456382	    -18.17982715
      2.28000000	      4.95224281	     -4.42250546	    -52.05382524	     -0.02798601	      0.93474291	      0.01828362	     23.33336342	     -0.65887209	    -13.32231078	    -38.28071084	      3.14543539	      2.35424337	     -9.37733707	     -0.69481872	    -13.04497827	    -16.69043796	     25.74619128	    -11.71447340	    -15.93106423	      1.67791115	    -18.58898060
      2.29000000	      5.04513437	     -4.35091031	    -52.10945928	     -0.02169038	      0.93274159	      0.02539947	     23.45183557	     -0.84924899	    -14.16256317	    -34.99822383	      2.88462850	      2.53863332	    -10.22827445	     -0.51109759	    -13.30284515	    -16.35808652	     26.21410446	    -11.29346062	    -15.89520856	      1.54521625	    -18.95684309
      2.30000000	      5.13023457	     -4.26559565	    -52.11273006	     -0.01545450	      0.93051642	      0.03257622	     23.50522057	     -1.01032813	    -15.01831084	    -31.66000323	      2.54359506	      2.82901097	    -10.98518915	     -0.35604264	    -13.49175704	    -16.17352440	     26.75663815	    -10.96895828	    -15.84864938	      1.40462266	    -19.38431248
      2.31000000	      5.21295224	     -4.18398495	    -52.09043868	     -0.00924576	      0.92813080	      0.03985908	     23.49123449	     -1.13489530	    -15.87368450	    -28.32603160	      2.20258717	      3.21513478	    -11.70107926	     -0.22594182	    -13.65083666	    -16.08177730	     27.31855293	    -10.66310920	    -15.80466104	      1.26830414	    -19.79913008
      2.32000000	      5.25913239	     -4.08214869	    -52.02343356	     -0.00305713	      0.92554850	      0.04723905	     23.47566961	     -1.23113798	    -16.78797290	    -25.07543945	      1.88689869	      3.55460522	    -12.31328445	     -0.14645636	    -13.76729347	    -16.11711344	     27.92997852	    -10.43433328	    -15.71393932	      1.15156427	    -20.23089402
      2.33000000	      5.33423651	     -4.05469173	    -51.95940810	      0.00302872	      0.92300116	      0.05478213	     23.33132130	     -1.24779467	    -17.59321106	    -21.92112341	      1.70863756	      4.17401316	    -12.98543041	     -0.10777771	    -13.87359685	    -16.21363204	     28.47529069	    -10.06906841	    -15.72050484	      1.04799326	    -20.59389014
      2.34000000	      5.35303217	     -4.00647261	    -51.84811816	      0.00909604	      0.92030373	      0.06242636	     23.24242633	     -1.23807395	    -18.43759152	    -19.00607608	      1.62653813	      4.72090031	    -13.53488358	     -0.14165177	    -13.94397725	    -16.44761718	     29.05225698	     -9.76948971	    -15.66565520	      0.98362654	    -20.96756291
      2.35000000	      5.31407184	     -3.94990443	    -51.69975656	      0.01515016	      0.91751221	      0.07020041	     23.21203612	     -1.19524049	    -19.27910397	    -16.39521841	      1.68333458	      5.12607252	    -13.98378984	     -0.25063293	    -13.96318585	    -16.79862420	     29.65315825	     -9.55318210	    -15.55624756	      0.96888666	    -21.34174371
      2.36000000	      5.28918472	     -3.98263497	    -51.57008141	      0.02111955	      0.91488273	      0.07817281	     23.09431357	     -1.08250246	    -19.94217701	    -14.08760190	      1.82771851	      5.83887028	    -14.50494176	     -0.41667387	    -13.97482330	    -17.19533569	     30.11015002	     -9.17016535	    -15.54259766	      0.99372027	    -21.61841595
      2.37000000	      5.19322499	     -3.98849939	    -51.41683857	      0.02711657	      0.91219667	      0.08630328	     23.09395182	     -0.96772367	    -20.57912423	    -12.23942050	      2.10916712	      6.15440147	    -14.89990222	     -0.64896100	    -13.91388326	    -17.71525021	     30.61127218	     -8.99883648	    -15.43885596	      1.06881804	    -21.88923410
      2.38000000	      5.09050470	     -4.08644009	    -51.29214209	      0.03313172	      0.90975075	      0.09472175	     23.02468922	     -0.79609398	    -21.07660987	    -10.80309762	      2.39822210	      6.54189734	    -15.38802684	     -0.94653489	    -13.85498561	    -18.22871362	     30.96954942	     -8.76968910	    -15.39449951	      1.21637496	    -22.11789051
      2.39000000	      4.98407251	     -4.25187096	    -51.21998577	      0.03916170	      0.90755776	      0.10346207	     22.91066235	     -0.58474703	    -21.39476015	     -9.81255974	      2.65634481	      7.01562243	    -15.96097624	     -1.27571028	    -13.76599002	    -18.71855994	     31.11209300	     -8.40760859	    -15.38346930	      1.40726929	    -22.25572741
      2.40000000	      4.82339770	     -4.41863536	    -51.14668869	      0.04526825	      0.90547740	      0.11245001	     22.86537865	     -0.37711649	    -21.69680471	     -9.33447775	      2.96799794	      7.09977981	    -16.46415078	     -1.66038916	    -13.61288961	    -19.30032140	     31.24008391	     -8.30031902	    -15.30519719	      1.65342742	    -22.38997144
      2.41000000	      4.64457939	     -4.69171670	    -51.09904452	      0.05143548	      0.90373365	      0.12177509	     22.74037158	     -0.10852322	    -21.94481386	     -9.29562459	      3.14832914	      7.06911154	    -17.05973597	     -2.12236413	    -13.40982397	    -19.89138399	     31.19468128	     -8.12099459	    -15.27936331	      1.99064086	    -22.45722244
      2.42000000	      4.42196795	     -5.00254472	    -51.07309074	      0.05767400	      0.90222796	      0.13147056	     22.59961268	      0.20365418	    -22.15607062	     -9.64249071	      3.22406330	      6.82619854	    -17.65826002	     -2.64811801	    -13.19442226	    -20.51877964	     31.00149708	     -7.92526198	    -15.21229010	      2.38946477	    -22.51861258
